<svg xmlns="http://www.w3.org/2000/svg" viewBox="0 0 400 300" width="100%" height="100%">
  <defs>
    <linearGradient id="bg" x1="0%" y1="0%" x2="100%" y2="100%">
      <stop offset="0%" stop-color="#191512"/>
      <stop offset="100%" stop-color="#0a0806"/>
    </linearGradient>
    <linearGradient id="cranium" x1="0%" y1="0%" x2="100%" y2="100%">
      <stop offset="0%" stop-color="#d4b483"/>
      <stop offset="60%" stop-color="#a88555"/>
      <stop offset="100%" stop-color="#6e502b"/>
    </linearGradient>
  </defs>
  <rect width="400" height="300" fill="url(#bg)"/>
  <!-- Homo erectus cranium (Low vault, angled occipital, thick brow) -->
  <path d="M 115 170 C 100 150, 95 125, 115 105 C 140 80, 230 70, 275 95 C 295 110, 305 140, 290 165 C 275 180, 255 180, 240 175 C 220 190, 200 215, 175 220 C 145 225, 135 200, 125 185 Z" fill="url(#cranium)" stroke="#453119" stroke-width="3"/>
  <ellipse cx="150" cy="145" rx="24" ry="20" fill="#140f09"/>
  <path d="M 120 130 Q 150 120 180 135" stroke="#f0d5a8" stroke-width="5" fill="none" stroke-linecap="round"/>
  <!-- Label Tag -->
  <rect x="20" y="245" width="145" height="32" rx="8" fill="#ffffff" fill-opacity="0.08" stroke="#ffffff" stroke-opacity="0.15"/>
  <text x="32" y="266" fill="#f59e0b" font-family="-apple-system, BlinkMacSystemFont, sans-serif" font-size="12" font-weight="700" letter-spacing="1">HOMO ERECTUS</text>
</svg>
